<svg width="33" height="33" xmlns="http://www.w3.org/2000/svg" xmlns:xlink="http://www.w3.org/1999/xlink" xmlns:svgjs="http://svgjs.com/svgjs" viewBox="0 0 32.999 33" fill="#0d0d0d"><svg xmlns="http://www.w3.org/2000/svg" width="33" height="33" viewBox="2 1.999 32 32.001"><path paint-order="stroke fill markers" fill-rule="evenodd" d="M33.415 12.585l-10-10a2.004 2.004 0 0 0-2.83 0 2.003 2.003 0 0 0-.496.823c-.454 1.468-1.237 2.746-2.395 3.904-1.548 1.547-3.564 2.718-5.697 3.957-2.264 1.312-4.603 2.672-6.52 4.588-1.629 1.63-2.738 3.445-3.388 5.55-.218.711-.028 1.481.496 2.007l10 10a2.002 2.002 0 0 0 2.83 0c.226-.227.398-.509.496-.825.454-1.469 1.237-2.746 2.396-3.904 1.547-1.547 3.563-2.717 5.697-3.956 2.263-1.314 4.602-2.673 6.519-4.589 1.629-1.629 2.738-3.446 3.388-5.551.218-.709.028-1.48-.496-2.004zM14 32L4 22c2.841-9.201 15.159-8.798 18-18 3.312 3.31 6.688 6.688 10 10-2.841 9.199-15.159 8.8-18 18zm7.561-15.1c-.326-.273-.654-.459-.984-.55a2.893 2.893 0 0 0-.989-.106c-.328.025-.664.1-1 .23-.335.13-.673.273-1.013.436a56.143 56.143 0 0 0-1.612-1.792c.243-.22.477-.331.703-.339.227-.01.446.014.653.067.21.052.404.097.582.133a.537.537 0 0 0 .472-.12.668.668 0 0 0 .237-.482c.01-.197-.065-.388-.229-.576a1.291 1.291 0 0 0-.77-.443c-.3-.053-.609-.05-.929.021a3.16 3.16 0 0 0-.902.36c-.285.167-.514.34-.684.508a8.185 8.185 0 0 0-.195-.184.373.373 0 0 0-.27-.1.35.35 0 0 0-.273.133.356.356 0 0 0-.092.285c.01.108.053.19.127.252l.195.166c-.256.309-.466.65-.632 1.01a3.373 3.373 0 0 0-.305 1.066c-.04.35-.002.67.105.967.108.299.305.553.594.794.47.39 1.025.556 1.668.518.64-.038 1.332-.23 2.074-.629.591.682 1.183 1.36 1.774 1.99-.25.21-.469.33-.663.37a1.05 1.05 0 0 1-.521-.01 1.64 1.64 0 0 1-.434-.209 3.2 3.2 0 0 0-.394-.235.912.912 0 0 0-.398-.1c-.137-.003-.282.064-.442.201a.64.64 0 0 0-.246.496c0 .185.086.375.254.566.17.191.39.351.658.478s.568.208.9.229c.333.023.682-.027 1.051-.164.371-.135.739-.379 1.1-.742.175.17.35.332.525.488a.361.361 0 0 0 .274.088.358.358 0 0 0 .27-.141.382.382 0 0 0 .093-.292.34.34 0 0 0-.125-.245 12.57 12.57 0 0 1-.527-.445c.299-.367.539-.754.716-1.137a3.5 3.5 0 0 0 .319-1.1 1.963 1.963 0 0 0-.12-.94c-.11-.288-.31-.534-.595-.77zm-5.59.678a.97.97 0 0 1-.746-.29.731.731 0 0 1-.195-.323 1.01 1.01 0 0 1-.04-.418 1.32 1.32 0 0 1 .137-.465c.075-.158.184-.316.325-.468a35.23 35.23 0 0 1 1.52 1.629c-.384.21-.718.323-1 .335zm4.717 2.002a2.1 2.1 0 0 1-.315.444 42.175 42.175 0 0 1-1.68-1.827c.143-.064.294-.13.456-.198.162-.07.324-.114.486-.141.166-.026.33-.018.494.022.162.04.317.129.46.267.14.14.23.287.265.445.04.16.041.322.014.489a1.63 1.63 0 0 1-.18.5zm-3.97 4.6h-.003c-.625.48-1.235.987-1.8 1.553a14.568 14.568 0 0 0-1.46 1.7l-.684.932.002.002a.503.503 0 0 0 .776.627.476.476 0 0 0 .074-.1l.64-.875c.396-.54.854-1.073 1.36-1.579.561-.561 1.082-.995 1.714-1.475l-.002-.002c.018-.014.036-.025.051-.04a.501.501 0 0 0-.669-.743zm3.66-14.464c-.523.522-1.09.993-1.677 1.442a.507.507 0 1 0 .582.815l.003.002a18.33 18.33 0 0 0 1.798-1.553 14.543 14.543 0 0 0 1.461-1.698l.684-.936-.002-.003a.503.503 0 1 0-.825-.56l-.665.91a13.423 13.423 0 0 1-1.36 1.58z"/></svg></svg>