<svg width="17" height="12" xmlns="http://www.w3.org/2000/svg" xmlns:xlink="http://www.w3.org/1999/xlink" xmlns:svgjs="http://svgjs.com/svgjs" viewBox="0 0.422 17 11.156" fill="gray"><svg xmlns="http://www.w3.org/2000/svg" width="17" height="12" viewBox="2 1.246 16 10.5"><path paint-order="stroke fill markers" fill-rule="evenodd" d="M16 1.246H4a2 2 0 0 0-2 2.001v6.499a2 2 0 0 0 2 2h12a2 2 0 0 0 2-2V3.247a2 2 0 0 0-2-2zM3 3.871l3.5 2.626L3 9.12v-5.25zm14 5.875c0 .553-.449 1-1 1H4c-.551 0-1-.447-1-1l3.916-2.937L9.1 8.447a1.501 1.501 0 0 0 1.8 0l2.184-1.638L17 9.746zm0-.625l-3.5-2.624L17 3.87v5.25zm-6.4-1.074a.991.991 0 0 1-.6.2.991.991 0 0 1-.6-.2l-2.068-1.55-.416-.313L3 3.248c0-.554.449-1.002 1-1.002h12c.551 0 1 .448 1 1.001l-6.4 4.8z"/></svg></svg>