<svg width="19" height="19" xmlns="http://www.w3.org/2000/svg" xmlns:xlink="http://www.w3.org/1999/xlink" xmlns:svgjs="http://svgjs.com/svgjs" fill="gray"><svg xmlns="http://www.w3.org/2000/svg" width="19" height="19" viewBox="1.04 1.037 17.92 17.92"><path paint-order="stroke fill markers" fill-rule="evenodd" d="M17.501 2.481c-.921-.92-2.134-1.444-3.33-1.444-1.008 0-1.937.373-2.614 1.05L8.83 4.833c-.008.008-.018.013-.026.022-.004.005-.007.01-.012.014l.002.002-5.785 5.828c-.267.265-.46.595-.567.956l-1.316 4.763c-.001.014-.087.389-.087.58 0 1.081.879 1.959 1.963 1.959.215 0 .632-.104.648-.105l4.747-1.248c.36-.108.689-.302.955-.57L17.9 8.421c1.555-1.558 1.38-4.165-.399-5.94zm-7.493 11.881a4.556 4.556 0 0 0-.402-1.471L14.9 7.597c.324 1.024.158 2.093-.552 2.801-.004.005-.01.008-.014.012l.007.008-4.328 4.362c.001-.14.008-.276-.005-.418zm-.684-1.982a5.03 5.03 0 0 0-.74-.967 4.993 4.993 0 0 0-1.145-.837l5.338-5.337a3.86 3.86 0 0 1 1.892 1.797L9.324 12.38zm-2.412-2.068a4.449 4.449 0 0 0-1.606-.336L9.62 5.63c.66-.645 1.622-.83 2.569-.595l-5.277 5.277zm-3.538 7.453c-.061.013-.251.063-.38.071a.842.842 0 0 1-.834-.839c.006-.093.044-.254.057-.315l.59-2.135c.64-.02 1.328.23 1.87.773.55.549.808 1.251.78 1.899l-2.083.546zm2.635-.691a3.123 3.123 0 0 0-.936-2.15c-.583-.585-1.347-.92-2.109-.95l.558-2.02c.04-.136.12-.267.219-.385 1.123-.804 2.85-.566 4.051.635 1.27 1.27 1.466 3.128.488 4.237-.065.034-.13.066-.201.087l-2.07.546zm11.099-9.446l-.944.951c0-.126.015-.248.004-.377-.098-1.084-.604-2.131-1.424-2.95-.912-.913-2.122-1.437-3.32-1.44l.928-.934c.463-.465 1.11-.722 1.82-.722.901 0 1.826.408 2.538 1.118.668.667 1.067 1.495 1.123 2.333.053.783-.205 1.501-.725 2.02z"/></svg></svg>