<svg width="19" height="19" xmlns="http://www.w3.org/2000/svg" xmlns:xlink="http://www.w3.org/1999/xlink" xmlns:svgjs="http://svgjs.com/svgjs" viewBox="0 0.001 19 18.999" fill="gray"><svg xmlns="http://www.w3.org/2000/svg" width="19" height="19" viewBox="1.68 1.677 16.64 16.639"><path paint-order="stroke fill markers" fill-rule="evenodd" d="M17.857 16.41c-.104-.068-2.001-1.313-4.822-1.922 1.035-1.312 1.7-3.076 1.982-4.248.391-1.627.24-4.81-1.323-6.792-.913-1.158-2.19-1.771-3.694-1.771s-2.781.613-3.694 1.771C4.743 5.431 4.592 8.613 4.983 10.24c.283 1.172.947 2.936 1.982 4.248-2.821.61-4.718 1.854-4.822 1.923a1.04 1.04 0 0 0 .577 1.905h14.56a1.04 1.04 0 0 0 .577-1.905zm-5.639-2.567l-.17.216c-1.24 1.425-2.857 1.425-4.097 0l-.17-.216c-1.448-1.835-2.167-4.261-1.857-6.577.284-2.225 1.559-4.55 4.076-4.55 2.517 0 3.792 2.325 4.076 4.55.308 2.316-.408 4.741-1.858 6.577zM2.72 17.278c.071-.05 1.834-1.205 4.465-1.772l1.291-.282c.461.303.967.492 1.524.492.556 0 1.063-.189 1.523-.492l1.292.282c2.61.562 4.366 1.706 4.465 1.772H2.72z"/></svg></svg>