<svg width="33" height="33" xmlns="http://www.w3.org/2000/svg" xmlns:xlink="http://www.w3.org/1999/xlink" xmlns:svgjs="http://svgjs.com/svgjs" fill="#0d0d0d"><svg xmlns="http://www.w3.org/2000/svg" width="33" height="33" viewBox="2 2 32 32"><path paint-order="stroke fill markers" fill-rule="evenodd" d="M10 8.021V5c0-1.655-1.346-3-3-3S4 3.345 4 5V8.02C2.792 8.934 2 10.37 2 12c0 1.63.792 3.064 2 3.976v15.023c0 1.655 1.346 3 3 3s3-1.345 3-3V15.976c1.208-.912 2-2.346 2-3.976 0-1.631-.792-3.066-2-3.979zM6 5a1 1 0 1 1 2 0v2.099a5.134 5.134 0 0 0-2 0v-2.1zm2 25.999a.999.999 0 1 1-2 0V16.897a4.903 4.903 0 0 0 2 0V31zm1.865-18.16c-.015.053-.03.106-.049.158a2.94 2.94 0 0 1-.378.736c-.003.006-.01.01-.013.016a2.99 2.99 0 0 1-.616.627l-.01.008a2.97 2.97 0 0 1-.799.43 2.935 2.935 0 0 1-1 .185c-.352 0-.686-.072-1-.185a2.971 2.971 0 0 1-.799-.43l-.01-.008a2.99 2.99 0 0 1-.616-.627l-.014-.016a2.945 2.945 0 0 1-.377-.736c-.019-.052-.034-.105-.05-.159A2.905 2.905 0 0 1 4 12c0-.296.055-.574.135-.842a2.995 2.995 0 0 1 .427-.894c.003-.007.01-.011.013-.016.174-.237.381-.45.616-.627.004-.003.007-.007.01-.008.241-.18.51-.326.799-.43a2.972 2.972 0 0 1 1-.184c.352 0 .685.072 1 .184.29.104.558.25.799.43.003.001.006.005.01.008.235.177.442.39.616.627.004.005.01.009.013.015.162.225.284.475.378.738.019.051.034.103.05.157.08.268.134.546.134.842 0 .293-.055.571-.135.838zM32 8.02V5c0-1.655-1.346-3-3-3s-3 1.345-3 3V8.02c-1.208.913-2 2.348-2 3.979 0 1.63.792 3.064 2 3.976v15.023c0 1.655 1.346 3 3 3s3-1.345 3-3V15.976c1.208-.912 2-2.346 2-3.976 0-1.631-.792-3.066-2-3.979zM28 5a1 1 0 1 1 2 0v2.099a5.134 5.134 0 0 0-2 0v-2.1zm2 25.999a.999.999 0 1 1-2 0V16.897a4.903 4.903 0 0 0 2 0V31zm1.865-18.16c-.015.053-.03.106-.049.158a2.948 2.948 0 0 1-.377.736l-.014.016a2.99 2.99 0 0 1-.616.627l-.01.008c-.241.182-.51.327-.799.43a2.935 2.935 0 0 1-1 .185c-.353 0-.686-.072-1-.185a2.97 2.97 0 0 1-.799-.43l-.01-.008a2.99 2.99 0 0 1-.616-.627l-.014-.016a2.94 2.94 0 0 1-.377-.736c-.02-.052-.034-.105-.05-.159A2.909 2.909 0 0 1 26 12c0-.296.055-.574.135-.842a2.991 2.991 0 0 1 .427-.894c.003-.007.01-.011.013-.016.174-.237.381-.45.616-.627.004-.003.007-.007.01-.008.241-.18.51-.326.799-.43a2.97 2.97 0 0 1 1-.184c.352 0 .685.072 1 .184.29.104.558.25.799.43.003.001.006.005.01.008.235.177.442.39.616.627.004.005.01.009.014.015a3 3 0 0 1 .377.738c.019.051.034.103.05.157.08.268.134.546.134.842 0 .293-.055.571-.135.838zM21 20.02V5c0-1.655-1.346-3-3-3s-3 1.345-3 3v15.02c-1.208.914-2 2.349-2 3.98 0 1.63.792 3.064 2 3.976v3.023c0 1.655 1.346 3 3 3s3-1.345 3-3v-3.023c1.208-.912 2-2.345 2-3.976 0-1.631-.792-3.066-2-3.98zM17 5a1 1 0 1 1 2 0v14.099a5.134 5.134 0 0 0-1-.1c-.343 0-.677.036-1 .1v-14.1zm2 25.999a.999.999 0 1 1-2 0v-2.101a4.958 4.958 0 0 0 2 0v2.101zm1.865-6.16a2.945 2.945 0 0 1-.427.894c-.003.006-.01.01-.013.016A3.009 3.009 0 0 1 19 26.813 2.935 2.935 0 0 1 18 27c-.353 0-.685-.072-1-.186a2.967 2.967 0 0 1-.809-.437 3.009 3.009 0 0 1-.616-.627l-.014-.015a2.945 2.945 0 0 1-.377-.737c-.019-.053-.034-.104-.05-.158A2.923 2.923 0 0 1 15 24c0-.295.055-.574.135-.842.015-.052.03-.106.049-.156.094-.263.216-.513.377-.738.004-.006.01-.01.014-.015.174-.237.381-.45.616-.627l.01-.008c.241-.18.51-.327.799-.43a2.99 2.99 0 0 1 1-.184c.353 0 .685.073 1 .184.29.103.557.25.799.43l.01.008c.235.177.442.39.616.627l.014.015c.16.225.283.475.377.738.019.05.034.104.05.156.08.268.134.547.134.843 0 .292-.055.571-.135.84z"/></svg></svg>